<!-- Generated by IcoMoon.io -->
<svg version="1.1" xmlns="http://www.w3.org/2000/svg" width="37" height="32" viewBox="0 0 37 32">
<title>bird</title>
<path fill="#f4f4fd" d="M36.571 4.661c-1.257 0.564-2.715 0.98-4.242 1.176l-0.078 0.008c1.554-0.933 2.722-2.375 3.283-4.091l0.015-0.053c-1.369 0.826-2.961 1.456-4.658 1.799l-0.096 0.016c-1.372-1.462-3.315-2.372-5.472-2.372-4.14 0-7.497 3.356-7.497 7.497v0c0 0.594 0.050 1.166 0.174 1.71-6.249-0.316-11.746-3.289-15.423-7.804l-0.031-0.039c-0.643 1.084-1.023 2.39-1.023 3.784 0 2.588 1.309 4.87 3.301 6.22l0.026 0.017c-1.248-0.034-2.41-0.371-3.425-0.94l0.037 0.019v0.082c0.004 3.616 2.556 6.635 5.958 7.358l0.049 0.009c-0.572 0.157-1.229 0.247-1.907 0.247-0.021 0-0.041-0-0.062-0l0.003 0c-0.035 0.001-0.076 0.001-0.118 0.001-0.461 0-0.91-0.047-1.344-0.136l0.043 0.007c0.998 2.998 3.741 5.138 6.996 5.223l0.010 0c-2.531 1.994-5.764 3.198-9.279 3.198-0.006 0-0.012 0-0.017 0h0.001c-0.615 0-1.205-0.027-1.794-0.103 3.23 2.11 7.185 3.365 11.433 3.365 0.024 0 0.048-0 0.073-0h-0.004c13.797 0 21.339-11.429 21.339-21.335 0-0.331-0.011-0.651-0.027-0.969 1.484-1.071 2.732-2.361 3.724-3.839l0.034-0.054z"></path>
</svg>
